<svg width="51" height="53" viewBox="0 0 51 53" fill="none" xmlns="http://www.w3.org/2000/svg">
<ellipse cx="25.4709" cy="26.5" rx="25.4709" ry="26.5" fill="#FBBC04"/>
<path d="M15.6654 30C14.412 30 13.252 30.44 12.332 31.1733C11.1054 32.1467 10.332 33.6533 10.332 35.3333C10.332 36.3333 10.612 37.28 11.1054 38.08C12.0254 39.6267 13.7187 40.6667 15.6654 40.6667C17.012 40.6667 18.2387 40.1733 19.172 39.3333C19.5854 38.9867 19.9454 38.56 20.2254 38.08C20.7187 37.28 20.9987 36.3333 20.9987 35.3333C20.9987 32.3867 18.612 30 15.6654 30ZM18.4254 34.76L15.5854 37.3866C15.3987 37.56 15.1454 37.6533 14.9054 37.6533C14.652 37.6533 14.3987 37.56 14.1987 37.36L12.8787 36.04C12.492 35.6534 12.492 35.0133 12.8787 34.6266C13.2654 34.24 13.9054 34.24 14.292 34.6266L14.932 35.2667L17.0654 33.2933C17.4654 32.92 18.1054 32.9467 18.4787 33.3467C18.852 33.7467 18.8254 34.3867 18.4254 34.76Z" fill="white"/>
<path opacity="0.4" d="M18.4246 34.76L15.5846 37.3866C15.3979 37.56 15.1445 37.6533 14.9045 37.6533C14.6512 37.6533 14.3979 37.56 14.1979 37.36L12.8779 36.04C12.4912 35.6534 12.4912 35.0133 12.8779 34.6266C13.2646 34.24 13.9046 34.24 14.2912 34.6266L14.9312 35.2667L17.0646 33.2933C17.4646 32.92 18.1046 32.9467 18.4779 33.3467C18.8512 33.7467 18.8246 34.3867 18.4246 34.76Z" fill="#292D32"/>
<path opacity="0.4" d="M34.972 27.2667H37.6654V25.3467C37.6654 22.5867 35.412 20.3333 32.652 20.3333H17.3454C14.5854 20.3333 12.332 22.5867 12.332 25.3467V31.1734C13.252 30.44 14.412 30 15.6654 30C18.612 30 20.9987 32.3867 20.9987 35.3333C20.9987 36.3333 20.7187 37.28 20.2254 38.08C19.9454 38.56 19.5854 38.9867 19.172 39.3333H32.652C35.412 39.3333 37.6654 37.08 37.6654 34.32V32.7333H35.132C33.692 32.7333 32.372 31.68 32.252 30.24C32.172 29.4 32.492 28.6133 33.052 28.0667C33.5454 27.56 34.2254 27.2667 34.972 27.2667Z" fill="#292D32"/>
<path d="M28.7987 15.2667V20.3333H17.3454C14.5854 20.3333 12.332 22.5867 12.332 25.3467V20.4534C12.332 18.8667 13.3054 17.4533 14.7854 16.8933L25.372 12.8933C27.0254 12.28 28.7987 13.4933 28.7987 15.2667Z" fill="white"/>
<path d="M39.0791 28.6266V31.3734C39.0791 32.1067 38.4924 32.7067 37.7457 32.7333H35.1324C33.6924 32.7333 32.3724 31.68 32.2524 30.24C32.1724 29.4 32.4924 28.6133 33.0524 28.0667C33.5457 27.56 34.2257 27.2667 34.9724 27.2667H37.7457C38.4924 27.2934 39.0791 27.8933 39.0791 28.6266Z" fill="white"/>
<path d="M27.6693 27H18.3359C17.7893 27 17.3359 26.5467 17.3359 26C17.3359 25.4533 17.7893 25 18.3359 25H27.6693C28.2159 25 28.6693 25.4533 28.6693 26C28.6693 26.5467 28.2159 27 27.6693 27Z" fill="white"/>
</svg>
