<svg width="51" height="53" viewBox="0 0 51 53" fill="none" xmlns="http://www.w3.org/2000/svg">
<ellipse cx="25.5002" cy="26.5" rx="25.4709" ry="26.5" fill="#00BC8B"/>
<path d="M41.5195 18.4998V21.9281C41.5195 24.1665 40.1579 25.5831 38.0065 25.5831H33.3496V15.6806C33.3496 14.1081 34.5887 12.819 36.1001 12.8331C37.5843 12.8473 38.946 13.4706 39.9264 14.4906C40.9068 15.5248 41.5195 16.9415 41.5195 18.4998Z" fill="white"/>
<path opacity="0.4" d="M14.2852 19.9163V39.7497C14.2852 40.9255 15.5651 41.5913 16.4638 40.883L18.7922 39.0697C19.3369 38.6447 20.0994 38.7013 20.5896 39.2113L22.8499 41.5772C23.381 42.1297 24.2524 42.1297 24.7835 41.5772L27.0711 39.1972C27.5476 38.7013 28.3102 38.6447 28.8412 39.0697L31.1696 40.883C32.0683 41.5772 33.3483 40.9113 33.3483 39.7497V15.6663C33.3483 14.108 34.5737 12.833 36.0716 12.833H21.0934H19.7318C15.6468 12.833 14.2852 15.3688 14.2852 18.4997V19.9163Z" fill="black"/>
<path d="M27.1253 27.1133C26.3764 27.1133 25.7637 27.7508 25.7637 28.5299C25.7637 29.3091 26.3764 29.9466 27.1253 29.9466C27.8742 29.9466 28.487 29.3091 28.487 28.5299C28.487 27.7508 27.8742 27.1133 27.1253 27.1133Z" fill="white"/>
<path d="M20.5081 24.2093C21.2707 24.2093 21.8698 23.5718 21.8698 22.7926C21.8698 22.0135 21.257 21.376 20.5081 21.376C19.7592 21.376 19.1465 22.0135 19.1465 22.7926C19.1465 23.5718 19.7592 24.2093 20.5081 24.2093Z" fill="white"/>
<path d="M28.2561 20.9654C27.8613 20.5545 27.2077 20.5545 26.8128 20.9654L19.3782 28.7004C18.9833 29.1112 18.9833 29.7912 19.3782 30.202C19.5824 30.4145 19.8411 30.5137 20.0999 30.5137C20.3586 30.5137 20.6173 30.4145 20.8215 30.202L28.2561 22.467C28.651 22.0562 28.651 21.3762 28.2561 20.9654Z" fill="white"/>
</svg>
