<svg width="51" height="53" viewBox="0 0 51 53" fill="none" xmlns="http://www.w3.org/2000/svg">
<ellipse cx="25.5002" cy="26.5" rx="25.4709" ry="26.5" fill="#1581E5"/>
<path opacity="0.4" d="M39.5963 21.7501V30.2501C39.5963 35.2084 36.873 37.3334 32.788 37.3334H21.1459C21.6225 36.4976 21.8948 35.5342 21.8948 34.5001C21.8948 31.3692 19.4575 28.8334 16.4482 28.8334C14.8143 28.8334 13.3573 29.5842 12.3633 30.7601V21.7501C12.3633 16.7917 15.0866 14.6667 19.1715 14.6667H32.788C36.873 14.6667 39.5963 16.7917 39.5963 21.7501Z" fill="black"/>
<path d="M25.9803 29.5416C27.8603 29.5416 29.3844 27.9559 29.3844 25.9999C29.3844 24.0439 27.8603 22.4583 25.9803 22.4583C24.1003 22.4583 22.5762 24.0439 22.5762 25.9999C22.5762 27.9559 24.1003 29.5416 25.9803 29.5416Z" fill="white"/>
<path d="M34.8318 29.8959C34.2735 29.8959 33.8105 29.4142 33.8105 28.8334V23.1667C33.8105 22.5859 34.2735 22.1042 34.8318 22.1042C35.3901 22.1042 35.853 22.5859 35.853 23.1667V28.8334C35.853 29.4142 35.3901 29.8959 34.8318 29.8959Z" fill="white"/>
<path d="M16.4486 28.8333C14.8146 28.8333 13.3576 29.5841 12.3636 30.7599C11.5194 31.7657 11.002 33.0691 11.002 34.4999C11.002 35.5624 11.2879 36.5683 11.7917 37.4183C12.7313 39.0616 14.4605 40.1666 16.4486 40.1666C17.8238 40.1666 19.0765 39.6424 20.0297 38.7499C20.4518 38.3816 20.8194 37.9283 21.1054 37.4183C21.6092 36.5683 21.8952 35.5624 21.8952 34.4999C21.8952 31.3691 19.4578 28.8333 16.4486 28.8333ZM18.6272 36.7383C18.4229 36.9508 18.1642 37.0499 17.9055 37.0499C17.6468 37.0499 17.3881 36.9508 17.1838 36.7383L16.4622 35.9874L15.7133 36.7666C15.509 36.9791 15.2503 37.0783 14.9916 37.0783C14.7329 37.0783 14.4742 36.9791 14.2699 36.7666C13.8751 36.3557 13.8751 35.6757 14.2699 35.2649L15.0188 34.4857L14.2971 33.735C13.9022 33.3241 13.9022 32.6441 14.2971 32.2333C14.692 31.8225 15.3456 31.8225 15.7405 32.2333L16.4622 32.9841L17.143 32.2757C17.5379 31.8649 18.1915 31.8649 18.5864 32.2757C18.9812 32.6866 18.9812 33.3666 18.5864 33.7774L17.9055 34.4857L18.6272 35.2366C19.022 35.6474 19.022 36.3133 18.6272 36.7383Z" fill="white"/>
</svg>
